<?xml version="1.0" encoding="UTF-8" standalone="no"?>
<!-- Generator: Adobe Illustrator 16.0.0, SVG Export Plug-In . SVG Version: 6.00 Build 0)  -->

<svg
   version="1.1"
   id="Layer_1"
   x="0px"
   y="0px"
   width="74px"
   height="56px"
   viewBox="0 0 74 56"
   enable-background="new 0 0 74 56"
   xml:space="preserve"
   sodipodi:docname="exampleIcon.svg"
   inkscape:version="1.1.2 (0a00cf5339, 2022-02-04)"
   inkscape:export-filename="/home/pablo/Dropbox/code/github/jasp-escience/jaspModuleTemplate/inst/icons/exampleIcon.png"
   inkscape:export-xdpi="96"
   inkscape:export-ydpi="96"
   xmlns:inkscape="http://www.inkscape.org/namespaces/inkscape"
   xmlns:sodipodi="http://sodipodi.sourceforge.net/DTD/sodipodi-0.dtd"
   xmlns="http://www.w3.org/2000/svg"
   xmlns:svg="http://www.w3.org/2000/svg"><defs
   id="defs7" /><sodipodi:namedview
   id="namedview7"
   pagecolor="#ffffff"
   bordercolor="#000000"
   borderopacity="0.25"
   inkscape:showpageshadow="2"
   inkscape:pageopacity="0.0"
   inkscape:pagecheckerboard="0"
   inkscape:deskcolor="#d1d1d1"
   inkscape:zoom="2.4462072"
   inkscape:cx="31.886097"
   inkscape:cy="28.41133"
   inkscape:window-width="1920"
   inkscape:window-height="1016"
   inkscape:window-x="0"
   inkscape:window-y="0"
   inkscape:window-maximized="1"
   inkscape:current-layer="Layer_1"
   inkscape:pageshadow="2"
   showgrid="false" />









<g
   id="g7"
   transform="matrix(2.605409,0,0,2.9303407,-4.6262267,-8.6747186)"
   style="stroke-width:0.361912"><rect
     x="2.875"
     y="4.5"
     fill="#fb8c00"
     stroke="#fb7a00"
     stroke-miterlimit="10"
     width="26"
     height="16"
     id="rect1"
     style="stroke-width:0.229456" /><g
     id="g6"
     style="stroke-width:0.361912">
	<path
   fill="#fc4a20"
   d="m 27.38,5.66 c 0.111,1.171 0.21,2.342 0.258,3.513 0.05,1.171 0.128,2.343 0.132,3.513 l 0.055,3.514 -0.045,3.514 -0.004,0.373 -0.367,-0.004 C 23.829,20.036 20.252,19.911 16.673,19.83 13.095,19.737 9.517,19.611 5.94,19.463 c 3.58,-0.064 7.16,-0.106 10.739,-0.115 3.58,0.003 7.16,-0.038 10.738,-10e-4 l -0.371,0.369 -0.061,-3.514 0.039,-3.514 C 27.022,11.517 27.094,10.346 27.139,9.174 27.18,8.003 27.273,6.832 27.38,5.66 Z"
   id="path6"
   style="stroke-width:0.361912" />
</g></g><text
   xml:space="preserve"
   style="font-style:normal;font-variant:normal;font-weight:normal;font-stretch:normal;font-size:29.3333px;font-family:'Nimbus Roman';-inkscape-font-specification:'Nimbus Roman, ';text-align:center;letter-spacing:0px;text-anchor:middle;fill:#fc4a20;fill-opacity:1;stroke:none;stroke-width:2.89134;stroke-opacity:1"
   x="65.184669"
   y="36.609261"
   id="text7"
   inkscape:label="text7"><tspan
     sodipodi:role="line"
     id="tspan7"
     x="65.184669"
     y="36.609261"
     style="font-style:normal;font-variant:normal;font-weight:bold;font-stretch:normal;font-size:29.3333px;font-family:'Nimbus Roman';-inkscape-font-specification:'Nimbus Roman, ';text-align:end;letter-spacing:0px;text-anchor:end;fill:#fc4a20;fill-opacity:1;stroke:none;stroke-opacity:1">ABC</tspan></text></svg>
